<?xml version="1.0" standalone="no"?>
<!DOCTYPE svg PUBLIC "-//W3C//DTD SVG 20010904//EN"
 "http://www.w3.org/TR/2001/REC-SVG-20010904/DTD/svg10.dtd">
<svg version="1.0" xmlns="http://www.w3.org/2000/svg"
 width="251.000000pt" height="251.000000pt" viewBox="0 0 251.000000 251.000000"
 preserveAspectRatio="xMidYMid meet">
<metadata>
Created by potrace 1.14, written by Peter Selinger 2001-2017
</metadata>
<g transform="translate(0.000000,251.000000) scale(0.100000,-0.100000)"
fill="#000000" stroke="none">
<path d="M1050 2332 c-15 -16 -34 -48 -41 -71 -7 -24 -26 -57 -41 -73 l-29
-31 -93 7 c-90 7 -94 6 -123 -18 -16 -14 -35 -42 -41 -63 -31 -102 -77 -130
-181 -111 -52 10 -63 9 -92 -8 -69 -41 -79 -116 -24 -171 33 -33 39 -35 81
-30 55 6 78 26 101 86 39 105 77 129 173 110 91 -18 135 6 160 86 30 96 76
124 170 106 48 -10 65 -9 93 3 61 25 84 88 55 151 -27 59 -120 74 -168 27z"/>
<path d="M1304 2326 c-46 -46 -48 -101 -5 -148 l29 -33 96 3 c55 2 104 -2 116
-8 22 -12 60 -79 60 -106 0 -9 16 -32 35 -51 l34 -34 93 6 c89 7 94 6 119 -17
14 -13 34 -46 44 -74 23 -65 65 -104 110 -104 93 0 142 79 99 161 -23 45 -74
63 -136 49 -59 -15 -109 -7 -134 21 -11 11 -30 48 -44 82 -35 86 -68 105 -157
88 -103 -19 -140 7 -184 128 -15 40 -61 71 -107 71 -25 0 -43 -9 -68 -34z"/>
<path d="M988 2070 c-14 -10 -35 -46 -47 -79 -13 -35 -33 -69 -49 -82 -25 -19
-34 -21 -116 -15 -102 8 -128 -2 -152 -60 -36 -85 60 -164 150 -123 22 10 46
51 61 106 3 12 22 36 42 54 l36 31 89 -7 c88 -7 88 -7 118 23 38 39 46 72 25
115 -27 57 -108 76 -157 37z"/>
<path d="M1383 2066 c-17 -15 -34 -40 -38 -56 -7 -33 18 -95 45 -110 19 -10
73 -12 146 -4 44 5 54 3 82 -21 19 -15 39 -48 49 -77 20 -57 56 -97 87 -100
72 -5 101 12 126 71 10 24 8 35 -9 68 -28 55 -64 69 -141 54 -49 -10 -65 -9
-94 3 -36 15 -71 60 -81 106 -18 81 -112 117 -172 66z"/>
<path d="M254 1716 c-45 -45 -47 -100 -6 -148 71 -83 80 -130 37 -189 -75
-103 -82 -133 -40 -190 63 -87 66 -93 62 -136 -3 -30 -16 -56 -46 -94 -61 -77
-54 -146 19 -184 39 -20 69 -19 106 4 35 22 60 78 50 116 -3 12 -21 41 -40 64
-68 81 -67 134 5 216 50 56 47 103 -8 172 -66 84 -66 121 1 202 59 70 60 121
4 173 -45 41 -99 39 -144 -6z"/>
<path d="M2114 1731 c-35 -22 -60 -78 -50 -116 3 -12 21 -41 40 -64 68 -81 67
-134 -5 -216 -50 -56 -47 -103 8 -172 66 -84 66 -121 -1 -202 -59 -70 -60
-121 -4 -173 45 -41 99 -39 144 6 45 45 47 100 6 148 -71 83 -80 130 -37 189
87 120 87 129 -1 249 -37 50 -30 103 25 171 61 77 54 146 -19 184 -39 20 -69
19 -106 -4z"/>
<path d="M462 1534 c-12 -8 -29 -29 -38 -45 -20 -39 -5 -88 41 -140 18 -20 36
-47 40 -59 12 -37 -4 -87 -41 -132 -48 -56 -57 -83 -44 -123 17 -50 45 -70
100 -70 56 0 82 18 97 69 12 40 -2 81 -47 132 -50 58 -50 134 2 181 11 10 29
35 40 56 16 32 17 44 8 73 -22 66 -104 96 -158 58z"/>
<path d="M1935 1541 c-26 -11 -39 -28 -52 -67 -13 -37 3 -80 47 -130 50 -58
50 -134 -2 -181 -11 -10 -29 -35 -40 -56 -16 -32 -17 -44 -8 -73 15 -45 54
-74 99 -74 44 0 75 20 97 61 20 39 5 88 -41 140 -18 20 -36 47 -40 59 -12 37
4 87 41 132 20 23 40 53 45 67 12 29 -4 81 -31 106 -22 20 -86 29 -115 16z"/>
<path d="M690 813 c-28 -6 -53 -31 -70 -72 -10 -24 -8 -35 9 -68 28 -55 64
-69 141 -54 49 10 65 9 94 -3 36 -15 71 -60 81 -106 18 -81 112 -117 172 -66
17 15 34 40 38 56 7 33 -18 95 -45 110 -19 10 -73 12 -146 4 -44 -5 -54 -2
-81 20 -17 14 -36 40 -43 58 -7 18 -19 47 -27 64 -19 43 -70 66 -123 57z"/>
<path d="M1724 798 c-20 -9 -44 -53 -59 -105 -3 -12 -22 -36 -42 -54 l-36 -31
-89 7 c-88 7 -88 7 -118 -23 -38 -39 -46 -72 -25 -115 18 -39 50 -57 99 -57
48 0 80 30 105 99 13 35 33 69 49 82 25 19 34 21 116 15 102 -8 128 2 152 60
27 64 -24 135 -96 133 -19 0 -45 -5 -56 -11z"/>
<path d="M401 736 c-74 -41 -64 -159 16 -192 29 -13 44 -13 85 -4 59 15 109 7
134 -21 11 -11 30 -48 44 -82 35 -86 68 -105 157 -88 103 19 140 -7 184 -128
15 -40 61 -71 107 -71 25 0 43 9 68 34 46 46 48 101 5 148 l-29 33 -96 -3
c-55 -2 -104 2 -116 8 -22 12 -60 79 -60 106 0 9 -16 32 -35 51 l-34 34 -93
-6 c-89 -7 -94 -6 -119 17 -14 13 -34 46 -44 74 -33 91 -104 129 -174 90z"/>
<path d="M1990 737 c-24 -12 -33 -27 -78 -122 -12 -26 -31 -46 -55 -58 -32
-16 -43 -17 -96 -6 -92 18 -136 -6 -161 -86 -30 -96 -76 -124 -170 -106 -68
14 -115 0 -144 -40 -33 -48 -12 -134 39 -157 72 -33 141 3 166 87 7 24 26 57
41 73 l29 31 93 -7 c90 -7 94 -6 123 18 16 14 35 42 41 63 31 102 77 130 181
111 52 -10 63 -9 92 8 68 40 79 116 25 170 -37 37 -80 44 -126 21z"/>
</g>
</svg>
