<?xml version="1.0" standalone="no"?>
<!DOCTYPE svg PUBLIC "-//W3C//DTD SVG 20010904//EN"
 "http://www.w3.org/TR/2001/REC-SVG-20010904/DTD/svg10.dtd">
<svg version="1.0" xmlns="http://www.w3.org/2000/svg"
 width="500.000000pt" height="500.000000pt" viewBox="0 0 500.000000 500.000000"
 preserveAspectRatio="xMidYMid meet">
<metadata>
Created by potrace 1.14, written by Peter Selinger 2001-2017
</metadata>
<g transform="translate(0.000000,500.000000) scale(0.100000,-0.100000)"
fill="#000000" stroke="none">
<path d="M2145 4686 c-61 -32 -101 -82 -122 -155 -46 -161 -120 -231 -240
-231 -32 0 -76 5 -98 11 -172 45 -283 -16 -331 -181 -8 -30 -27 -74 -40 -98
-63 -107 -143 -134 -304 -102 -125 25 -186 12 -253 -55 -108 -108 -67 -300 75
-359 96 -40 230 2 274 85 8 16 28 67 45 115 64 174 167 226 354 177 73 -20
146 -10 199 27 51 34 76 72 101 150 53 165 118 224 245 221 36 -1 88 -7 115
-15 114 -30 213 6 270 98 25 41 30 59 30 110 -1 129 -80 214 -210 223 -50 4
-68 0 -110 -21z"/>
<path d="M2686 4693 c-118 -40 -177 -156 -142 -275 35 -120 162 -185 286 -147
19 5 66 12 103 14 136 8 202 -45 257 -206 40 -115 59 -140 132 -179 47 -25
110 -30 175 -13 200 52 307 -12 367 -220 52 -179 259 -233 383 -100 80 86 77
220 -6 303 -68 68 -143 84 -256 53 -16 -4 -64 -8 -105 -8 -61 0 -82 4 -113 23
-51 32 -92 95 -122 187 -39 121 -84 169 -179 190 -42 10 -65 9 -131 -6 -198
-42 -293 12 -355 203 -28 87 -55 126 -111 161 -54 33 -124 41 -183 20z"/>
<path d="M2036 4178 c-25 -7 -58 -29 -86 -57 -38 -38 -51 -61 -69 -120 -57
-189 -155 -253 -331 -214 -130 29 -208 14 -272 -54 -105 -111 -64 -300 79
-360 48 -20 130 -16 179 8 62 29 98 76 127 164 36 105 70 160 119 191 50 32
132 41 209 24 129 -29 188 -22 253 32 124 102 104 297 -38 370 -47 24 -117 31
-170 16z"/>
<path d="M2805 4161 c-127 -58 -170 -213 -91 -328 36 -53 105 -93 165 -97 23
-1 71 5 107 14 62 15 133 17 179 6 11 -2 23 -5 27 -5 4 -1 23 -15 42 -32 43
-37 81 -104 103 -178 22 -78 55 -125 107 -156 111 -65 256 -24 311 89 57 118
17 243 -97 300 -60 30 -95 32 -198 10 -88 -18 -167 -14 -213 13 -41 24 -91 90
-110 145 -8 24 -23 64 -32 90 -19 55 -72 112 -123 133 -47 20 -129 18 -177 -4z"/>
<path d="M3 3735 c0 -27 2 -38 4 -22 2 15 2 37 0 50 -2 12 -4 0 -4 -28z"/>
<path d="M1907 3656 c-103 -28 -162 -106 -162 -217 0 -88 37 -151 113 -192
120 -65 273 -7 316 119 58 171 -93 336 -267 290z"/>
<path d="M2965 3649 c-46 -18 -93 -57 -122 -102 -35 -55 -38 -152 -6 -212 107
-203 411 -135 422 94 3 81 -48 169 -121 207 -39 20 -133 27 -173 13z"/>
<path d="M554 3465 c-106 -54 -152 -192 -98 -298 10 -18 37 -53 62 -79 132
-138 135 -254 8 -394 -66 -74 -88 -116 -92 -176 -3 -72 13 -110 84 -195 108
-130 126 -199 77 -298 -13 -27 -45 -72 -70 -100 -73 -79 -90 -116 -89 -200 1
-63 31 -123 81 -163 155 -123 386 8 360 203 -8 55 -25 87 -72 140 -47 52 -88
112 -105 153 -29 73 9 174 105 277 52 56 68 91 71 160 3 72 -15 113 -81 187
-102 114 -126 197 -82 289 14 30 52 85 85 122 68 77 88 131 78 204 -21 154
-182 239 -322 168z"/>
<path d="M4278 3475 c-52 -17 -82 -39 -111 -77 -66 -88 -60 -208 15 -289 161
-174 168 -263 32 -420 -68 -78 -84 -107 -91 -165 -8 -70 13 -125 74 -196 81
-93 106 -140 109 -207 3 -67 -22 -120 -104 -213 -62 -71 -86 -129 -79 -195 15
-155 172 -248 309 -184 90 42 133 109 132 206 -1 71 -14 99 -87 183 -76 87
-92 123 -92 202 1 73 24 120 97 195 53 54 79 108 83 167 4 73 -11 109 -83 195
-36 43 -73 96 -83 118 -40 88 -15 180 81 285 57 63 76 98 85 157 23 156 -139
289 -287 238z"/>
<path d="M942 3084 c-94 -47 -143 -146 -121 -244 11 -51 29 -81 72 -125 75
-78 118 -168 110 -234 -6 -50 -44 -119 -98 -176 -65 -70 -87 -116 -87 -184 -1
-122 97 -223 217 -223 128 0 225 96 225 222 0 68 -16 101 -93 194 -100 119
-116 195 -62 294 14 26 46 69 71 96 92 97 112 213 51 301 -46 66 -96 95 -176
102 -47 4 -65 0 -109 -23z"/>
<path d="M3907 3096 c-99 -27 -167 -113 -167 -213 0 -71 19 -112 85 -185 134
-149 133 -258 -5 -406 -61 -66 -84 -123 -78 -196 7 -79 48 -142 118 -179 48
-25 63 -28 117 -24 51 4 71 11 110 39 62 44 97 111 96 182 -1 68 -20 109 -87
185 -132 151 -132 251 0 396 25 28 56 71 68 97 78 163 -81 350 -257 304z"/>
<path d="M1370 2720 c-208 -59 -232 -332 -37 -421 139 -63 298 33 310 187 10
124 -81 229 -206 238 -23 2 -53 0 -67 -4z"/>
<path d="M3495 2706 c-148 -65 -186 -253 -73 -366 89 -88 233 -85 320 7 81 85
77 225 -9 308 -63 61 -165 83 -238 51z"/>
<path d="M1890 1776 c-48 -14 -123 -91 -138 -142 -41 -138 42 -271 182 -290
134 -19 251 84 250 221 -1 157 -139 256 -294 211z"/>
<path d="M2962 1768 c-150 -56 -196 -240 -90 -360 109 -124 325 -76 377 84 56
171 -119 339 -287 276z"/>
<path d="M1365 1634 c-111 -39 -172 -166 -135 -279 19 -56 48 -93 99 -123 53
-31 124 -35 237 -13 165 31 256 -29 312 -205 30 -96 61 -137 126 -169 159 -78
329 34 321 211 -7 152 -153 242 -311 193 -18 -5 -63 -10 -101 -11 -133 -2
-197 56 -252 228 -24 76 -65 130 -121 159 -42 22 -126 26 -175 9z"/>
<path d="M3528 1639 c-94 -14 -154 -70 -188 -176 -61 -183 -131 -242 -275
-230 -33 3 -84 11 -113 18 -135 33 -262 -56 -276 -195 -14 -127 79 -234 210
-242 64 -4 140 30 180 79 15 19 41 73 57 118 16 46 42 102 58 125 55 81 155
106 294 73 111 -26 184 -9 247 58 143 150 10 404 -194 372z"/>
<path d="M865 1501 c-139 -36 -211 -192 -146 -318 51 -101 159 -143 284 -110
76 20 171 17 221 -7 51 -26 100 -95 127 -181 40 -126 87 -178 182 -200 42 -10
63 -9 112 3 88 21 192 20 239 -3 49 -24 100 -93 127 -175 32 -95 55 -136 93
-165 175 -133 413 28 352 238 -36 125 -161 182 -311 143 -73 -19 -164 -14
-211 13 -49 28 -96 96 -124 181 -28 83 -42 109 -77 141 -64 60 -123 74 -223
53 -101 -21 -149 -23 -199 -8 -80 23 -138 99 -174 225 -20 69 -60 121 -113
148 -47 24 -115 33 -159 22z"/>
<path d="M3979 1475 c-61 -31 -90 -73 -123 -173 -31 -91 -74 -156 -124 -185
-47 -28 -134 -32 -225 -12 -92 20 -153 14 -207 -20 -50 -31 -76 -70 -104 -152
-45 -132 -78 -178 -150 -208 -54 -23 -161 -21 -228 4 -46 16 -127 5 -176 -26
-123 -76 -145 -247 -44 -349 38 -38 77 -55 138 -61 114 -12 205 54 239 175 25
86 71 163 114 194 51 36 128 48 206 31 104 -23 143 -25 182 -13 89 28 138 84
169 192 19 65 53 124 93 162 33 31 114 57 158 50 59 -9 89 -14 113 -20 46 -10
124 -5 162 10 82 35 137 125 132 216 -3 60 -16 90 -56 135 -66 76 -179 97
-269 50z"/>
<path d="M4993 1265 c0 -27 2 -38 4 -22 2 15 2 37 0 50 -2 12 -4 0 -4 -28z"/>
</g>
</svg>
